# xmcd CD database file
#
# Track frame offsets:
#	150
#	16993
#	30129
#	44146
#	62782
#	75563
#	90234
#	104058
#	118044
#	135198
#	148280
#	161124
#
# Disc length: 2358 seconds
#
# Revision: 0
# Processed by: cddbd v1.5.2PL0 Copyright (c) Steve Scherf et al.
# Submitted via: CDex 2.02
#
DISCID=9b09340c
DTITLE=Dave Paterson - From Four 'til Late
DYEAR=1900
DGENRE=Blues
TTITLE0=Voodoo Music
TTITLE1=Baby I'm Crazy About You
TTITLE2=Chumpman Blues
TTITLE3=Phonograph Blues
TTITLE4=Let Us Get Together
TTITLE5=Milkcow Calf's Blues
TTITLE6=Babe I Want You to Know
TTITLE7=The Sunny Side of the Street
TTITLE8=From Four 'til Late
TTITLE9=Guitar Rag
TTITLE10=I Crave My Pigmeat
TTITLE11=No One Can Forgive Me But My Baby
EXTD=
EXTT0=
EXTT1=
EXTT2=
EXTT3=
EXTT4=
EXTT5=
EXTT6=
EXTT7=
EXTT8=
EXTT9=
EXTT10=
EXTT11=
PLAYORDER=
